<svg xmlns="http://www.w3.org/2000/svg" width="40" height="40" viewBox="0 0 40 40"><g transform="translate(7423 -4639)"><rect width="40" height="40" transform="translate(-7423 4639)" fill="none"/><rect width="2" height="2" rx="1" transform="translate(-7404 4658)" fill="rgba(255,255,255,0.2)" opacity="0"/><g transform="translate(-7415 4647)"><path d="M22,3H7A2.006,2.006,0,0,0,5,5V8H7V5H22V20H14a2.006,2.006,0,0,1-2,2H22a2.006,2.006,0,0,0,2-2V5A2.006,2.006,0,0,0,22,3Z" fill="#ffffff"/><path d="M12,12a2.006,2.006,0,0,0-2-2H2a2.006,2.006,0,0,0-2,2v8a2.006,2.006,0,0,0,2,2h8a2.006,2.006,0,0,0,2-2Z" fill="#ffffff"/></g></g></svg>