<svg xmlns="http://www.w3.org/2000/svg" width="40" height="40" viewBox="0 0 40 40"><g transform="translate(7555 -4639)"><rect width="40" height="40" transform="translate(-7555 4639)" fill="none"/><rect width="2" height="2" rx="1" transform="translate(-7536 4658)" fill="#fff" opacity="0"/><g transform="translate(-7547 4647)"><path d="M9,19H1v2H9v3l4-4L9,16Z" fill="#fff"/><path d="M18,5H11A2.006,2.006,0,0,0,9,7v6.4l2,2V7h6l4,4v9H15.6l-2,2H21a2.006,2.006,0,0,0,2-2V10Z" fill="#fff"/><path d="M4,17H7V15H4V2h6l1,1h3L11,0H4A2.006,2.006,0,0,0,2,2V15A2.006,2.006,0,0,0,4,17Z" fill="#fff"/></g></g></svg>