<svg xmlns="http://www.w3.org/2000/svg" width="40" height="40" viewBox="0 0 40 40"><rect width="40" height="40" fill="none"/><rect width="2" height="2" rx="1" transform="translate(19 19)" fill="rgba(255,255,255,0.2)" opacity="0"/><g transform="translate(8 8)"><path d="M0,0H24V24H0Z" fill="none"/><path d="M19,7H14V9h5a3,3,0,0,1,0,6H14v2h5A5,5,0,0,0,19,7" fill="rgba(255,255,255,0.6)"/><path d="M7,11H17v2H7Z" fill="rgba(255,255,255,0.6)"/><path d="M10,15H5A3,3,0,0,1,5,9h5V7H5A5,5,0,0,0,5,17h5Z" fill="rgba(255,255,255,0.6)"/></g></svg>