<svg xmlns="http://www.w3.org/2000/svg" width="40" height="40" viewBox="0 0 40 40"><g transform="translate(7511 -4639)"><rect width="40" height="40" transform="translate(-7511 4639)" fill="none"/><rect width="2" height="2" rx="1" transform="translate(-7492 4658)" fill="rgba(255,255,255,0.2)" opacity="0"/><g transform="translate(-7502 4647)"><path d="M17,1H10A2.006,2.006,0,0,0,8,3V4h2V3h6l4,4V17H19v2h1a2.006,2.006,0,0,0,2-2V6Z" fill="rgba(255,255,255,0.6)"/><path d="M13,5H6A2.006,2.006,0,0,0,4,7v6H6V7h6l4,4V21H10v2h6a2.006,2.006,0,0,0,2-2V10Z" fill="rgba(255,255,255,0.6)"/><path d="M9,18H6V15H4v3H1v2H4v3H6V20H9Z" fill="rgba(255,255,255,0.6)"/></g></g></svg>