<svg xmlns="http://www.w3.org/2000/svg" width="40" height="40" viewBox="0 0 40 40"><g transform="translate(7467 -4639)"><rect width="40" height="40" transform="translate(-7467 4639)" fill="none"/><rect width="2" height="2" rx="1" transform="translate(-7448 4658)" fill="rgba(255,255,255,0.2)" opacity="0"/><g transform="translate(-7459 4647)"><path d="M6,4H18V9h2V4a2.006,2.006,0,0,0-2-2H6A2.006,2.006,0,0,0,4,4V9H6Z" fill="#ffffff"/><rect width="22" height="2" transform="translate(1 11)" fill="#ffffff"/><path d="M18,20H6V15H4v5a2.006,2.006,0,0,0,2,2H18a2.006,2.006,0,0,0,2-2V15H18Z" fill="#ffffff"/></g></g></svg>